# xmcd CD database file
#
# Track frame offsets:
#	150
#	13082
#	48752
#	60707
#	68722
#	89095
#	95960
#	103885
#	115375
#	120630
#	128310
#	144870
#	154245
#	165732
#	189825
#	204512
#	218230
#	247430
#	277987
#	287665
#	311630
#
# Disc length: 4313 seconds
#
# Revision: 2
# Processed by: cddbd v1.5.2PL0 Copyright (c) Steve Scherf et al.
# Submitted via: CDex 1.70beta3
#
DISCID=3a10d715
DTITLE=声優 - おしゃれ(秘)指令 レッツゴー声優大作戦
DYEAR=1995
DGENRE=seiyu
TTITLE0=オープニング～作戦開始
TTITLE1=クイズ・アニメでドン
TTITLE2=サボリ
TTITLE3=ある新聞記者
TTITLE4=BROKEN TIME -BROKEN HEART
TTITLE5=飛び込み自殺
TTITLE6=若奥サマと危ない八百屋
TTITLE7=女子高生と危ない花屋
TTITLE8=応援団員と危ないスポーツ用品店
TTITLE9=マット洗い
TTITLE10=恋のヴァージンボーイ
TTITLE11=痴漢電車
TTITLE12=イヤしん坊万歳
TTITLE13=Daily News
TTITLE14=電話相談室
TTITLE15=先輩
TTITLE16=シビアな女のウィークエンド
TTITLE17=野球中継
TTITLE18=駅
TTITLE19=怪獣中継
TTITLE20=エンディング～作戦終了
EXTD=YEAR: 1995
EXTT0=
EXTT1=
EXTT2=
EXTT3=
EXTT4=
EXTT5=
EXTT6=
EXTT7=
EXTT8=
EXTT9=
EXTT10=
EXTT11=
EXTT12=
EXTT13=
EXTT14=
EXTT15=
EXTT16=
EXTT17=
EXTT18=
EXTT19=
EXTT20=
PLAYORDER=
